<svg width="80" height="80" viewBox="0 0 80 80" fill="none" xmlns="http://www.w3.org/2000/svg">
<rect width="80" height="80" rx="40" fill="#FFFACB"/>
<path d="M22.0058 45.678C22.171 45.2651 22.0436 44.7926 21.6932 44.5187C20.052 43.2359 19 41.2411 19 39C19 35.134 22.134 32 26 32H30C33.866 32 37 35.134 37 39C37 42.866 33.866 46 30 46H26C25.8728 46 25.7467 46.0243 25.6286 46.0715L21.1284 47.8716L22.0058 45.678Z" stroke="#131C2F" stroke-width="2" stroke-linejoin="round"/>
<path d="M45.6016 42.4609L47.7266 42.2031C47.7943 42.7448 47.9766 43.1589 48.2734 43.4453C48.5703 43.7318 48.9297 43.875 49.3516 43.875C49.8047 43.875 50.1849 43.7031 50.4922 43.3594C50.8047 43.0156 50.9609 42.5521 50.9609 41.9688C50.9609 41.4167 50.8125 40.9792 50.5156 40.6562C50.2188 40.3333 49.8568 40.1719 49.4297 40.1719C49.1484 40.1719 48.8125 40.2266 48.4219 40.3359L48.6641 38.5469C49.2578 38.5625 49.7109 38.4349 50.0234 38.1641C50.3359 37.888 50.4922 37.5234 50.4922 37.0703C50.4922 36.6849 50.3776 36.3776 50.1484 36.1484C49.9193 35.9193 49.6146 35.8047 49.2344 35.8047C48.8594 35.8047 48.5391 35.9349 48.2734 36.1953C48.0078 36.4557 47.8464 36.8359 47.7891 37.3359L45.7656 36.9922C45.9062 36.2995 46.1172 35.7474 46.3984 35.3359C46.6849 34.9193 47.0807 34.5938 47.5859 34.3594C48.0964 34.1198 48.6667 34 49.2969 34C50.375 34 51.2396 34.3438 51.8906 35.0312C52.4271 35.5938 52.6953 36.2292 52.6953 36.9375C52.6953 37.9427 52.1458 38.7448 51.0469 39.3438C51.7031 39.4844 52.2266 39.7995 52.6172 40.2891C53.013 40.7786 53.2109 41.3698 53.2109 42.0625C53.2109 43.0677 52.8438 43.9245 52.1094 44.6328C51.375 45.3411 50.4609 45.6953 49.3672 45.6953C48.3307 45.6953 47.4714 45.3984 46.7891 44.8047C46.1068 44.2057 45.7109 43.4245 45.6016 42.4609ZM58.7769 34C59.8862 34 60.7534 34.3958 61.3784 35.1875C62.1232 36.125 62.4956 37.6797 62.4956 39.8516C62.4956 42.0182 62.1206 43.5755 61.3706 44.5234C60.7508 45.3047 59.8862 45.6953 58.7769 45.6953C57.6623 45.6953 56.7639 45.2682 56.0816 44.4141C55.3993 43.5547 55.0581 42.026 55.0581 39.8281C55.0581 37.6719 55.4331 36.1198 56.1831 35.1719C56.8029 34.3906 57.6675 34 58.7769 34ZM58.7769 35.8203C58.5112 35.8203 58.2743 35.9062 58.0659 36.0781C57.8576 36.2448 57.6961 36.5469 57.5816 36.9844C57.4305 37.5521 57.355 38.5078 57.355 39.8516C57.355 41.1953 57.4227 42.1198 57.5581 42.625C57.6935 43.125 57.8628 43.4583 58.0659 43.625C58.2743 43.7917 58.5112 43.875 58.7769 43.875C59.0425 43.875 59.2795 43.7917 59.4878 43.625C59.6961 43.4531 59.8576 43.1484 59.9722 42.7109C60.1232 42.1484 60.1987 41.1953 60.1987 39.8516C60.1987 38.5078 60.131 37.5859 59.9956 37.0859C59.8602 36.5807 59.6883 36.2448 59.48 36.0781C59.2769 35.9062 59.0425 35.8203 58.7769 35.8203Z" fill="#131C2F"/>
</svg>
