<svg width="184" height="22" viewBox="0 0 184 22" fill="none" xmlns="http://www.w3.org/2000/svg">
<path d="M81.3249 13.35C81.3949 15.26 82.2249 16.2 83.6749 16.2C84.6549 16.2 85.7949 15.63 86.7749 14.97L87.2949 15.93C86.2449 17.01 84.1749 18.21 82.2149 18.21C80.0949 18.21 78.6549 16.73 78.6549 13.99C78.6549 9.91001 81.8849 6.40001 85.5449 6.40001C87.4649 6.40001 88.3449 7.38001 88.3449 8.75001C88.3449 11.43 85.0149 12.8 81.3249 13.35ZM84.3349 8.11001C82.9949 8.11001 81.6649 9.84001 81.3249 12.14C84.0649 11.71 85.5949 10.57 85.5949 9.27001C85.5949 8.51001 85.1349 8.10001 84.3349 8.10001V8.11001ZM180.435 5.58001C182.345 5.58001 183.245 6.56001 183.245 7.93001C183.245 10.62 179.915 11.99 176.215 12.53C176.285 14.45 177.115 15.38 178.565 15.38C179.545 15.38 180.685 14.81 181.665 14.15L182.185 15.11C181.135 16.19 179.065 17.39 177.095 17.39C174.975 17.39 173.535 15.9 173.535 13.17C173.535 9.09001 176.765 5.58001 180.415 5.58001H180.435ZM180.475 8.46001C180.475 7.71001 180.015 7.30001 179.215 7.30001C177.875 7.30001 176.545 9.03001 176.205 11.33C178.935 10.89 180.465 9.75001 180.465 8.45001L180.475 8.46001ZM72.5749 17.83L69.5849 18.1L65.9349 8.23001C65.4949 8.14001 65.0649 8.01001 64.6549 7.84001V6.68001H70.2449V7.82001C69.7549 8.01001 69.2349 8.14001 68.7149 8.23001L71.4949 15.98L74.3149 8.28001C73.7949 8.19001 73.1049 8.05001 72.6949 7.82001V6.68001H77.7549V7.84001C77.3349 8.03001 76.8849 8.16001 76.4349 8.23001L72.5649 17.82L72.5749 17.83ZM61.5449 4.75001C61.1949 4.75001 60.8649 4.65001 60.5749 4.45001C60.2849 4.26001 60.0649 3.98001 59.9349 3.67001C59.8049 3.35001 59.7649 3.00001 59.8349 2.66001C59.9049 2.32001 60.0649 2.01001 60.3149 1.77001C60.5549 1.53001 60.8749 1.36001 61.2049 1.29001C61.5449 1.22001 61.8949 1.26001 62.2149 1.39001C62.5349 1.52001 62.8049 1.75001 62.9949 2.03001C63.1849 2.32001 63.2849 2.65001 63.2849 3.00001C63.2849 3.46001 63.1049 3.91001 62.7749 4.24001C62.4449 4.57001 62.0049 4.75001 61.5349 4.75001H61.5449ZM62.3949 7.53001C62.3949 7.76001 62.3549 8.10001 62.3249 8.33001L61.1149 15.76C61.1849 15.83 61.2449 15.91 61.2949 15.99H63.1649V16.88C62.1149 17.44 60.0249 18.22 59.2349 18.22C58.5949 18.22 58.2749 17.81 58.2749 17.13C58.2749 16.92 58.3449 16.54 58.3649 16.33L59.5749 8.90001L59.3949 8.67001H57.5249V7.78001C58.5749 7.19001 60.6949 6.41001 61.4249 6.41001C62.0849 6.41001 62.3849 6.84001 62.3849 7.53001H62.3949ZM146.305 14.61V7.59001H144.615V5.99001H146.305L147.625 2.98001H148.835V5.99001H152.305V7.59001H148.835V13.69C148.835 14.88 149.405 15.4 150.365 15.4C151.085 15.38 151.805 15.26 152.485 15.04L152.735 16.18C151.635 16.68 149.905 17.36 148.585 17.36C146.965 17.36 146.305 16.38 146.305 14.58V14.61ZM49.3449 15.44V8.44001H47.6549V6.84001H49.3449L50.6649 3.83001H51.8749V6.84001H55.3449V8.44001H51.8749V14.54C51.8749 15.72 52.4449 16.25 53.4049 16.25C54.1249 16.23 54.8449 16.11 55.5249 15.89L55.7749 17.03C54.6749 17.53 52.9449 18.21 51.6249 18.21C50.0049 18.21 49.3449 17.23 49.3449 15.43V15.44ZM140.995 10.42L140.535 8.03001C140.035 7.76001 139.185 7.55001 138.185 7.55001C136.315 7.55001 135.015 8.81001 135.015 11.22C135.015 14.05 136.675 15.41 139.165 15.41C140.285 15.39 141.395 15.18 142.455 14.79V16.41C141.705 16.86 139.835 17.39 138.095 17.39C134.355 17.39 132.535 15.34 132.535 12.15C132.535 8.39001 135.205 5.59001 139.015 5.59001C140.455 5.59001 141.825 6.00001 142.685 6.55001C142.665 7.80001 142.535 9.04001 142.295 10.27L140.995 10.43V10.42ZM42.1249 18.22C41.5349 18.22 41.2349 17.86 41.2349 17.24C41.2349 16.53 42.2149 12.66 42.2149 12.66H41.9649C40.1649 16.63 38.8349 18.22 37.1049 18.22C35.6249 18.22 34.3949 16.69 34.3949 14.44C34.3949 10.25 37.6249 6.42001 41.0149 6.42001C41.6549 6.42001 42.2949 6.54001 42.8849 6.78001C43.0649 6.42001 43.3349 6.12001 43.6849 5.91001L45.2449 6.21001L43.7449 15.78L43.9249 15.98H45.8849V16.89C45.1249 17.3 42.9549 18.21 42.1349 18.21L42.1249 18.22ZM40.1649 8.08001C38.3149 8.08001 37.0849 10.77 37.0849 13.37C37.0849 15.06 37.5149 16.06 38.3649 16.06C39.0249 16.06 40.9149 12.91 42.3749 8.63001C41.8049 8.26001 40.8049 8.08001 40.1649 8.08001ZM128.715 14.96L128.895 15.16H130.855V16.07C130.105 16.48 127.935 17.39 127.115 17.39C126.525 17.39 126.215 17.03 126.215 16.41C126.215 15.7 127.195 11.83 127.195 11.83H126.945C125.145 15.8 123.815 17.39 122.085 17.39C120.605 17.39 119.375 15.86 119.375 13.61C119.375 9.42001 122.615 5.59001 125.985 5.59001C126.625 5.59001 127.265 5.71001 127.855 5.95001C128.035 5.59001 128.325 5.29001 128.675 5.08001L130.225 5.38001L128.715 14.96ZM125.155 7.26001C123.305 7.26001 122.075 9.95001 122.075 12.55C122.075 14.24 122.505 15.24 123.355 15.24C124.015 15.24 125.905 12.1 127.375 7.81001C126.805 7.44001 125.805 7.26001 125.165 7.26001H125.155ZM25.6049 13.35C25.6749 15.26 26.5049 16.2 27.9549 16.2C28.9349 16.2 30.0749 15.63 31.0549 14.97L31.5749 15.93C30.5249 17.01 28.4449 18.21 26.4849 18.21C24.3649 18.21 22.9249 16.73 22.9249 13.99C22.9249 9.91001 26.1649 6.40001 29.8149 6.40001C31.7349 6.40001 32.6149 7.38001 32.6149 8.75001C32.6149 11.43 29.2849 12.8 25.5949 13.35H25.6049ZM28.6149 8.11001C27.2749 8.11001 25.9449 9.84001 25.6049 12.14C28.3449 11.71 29.8749 10.57 29.8749 9.27001C29.8749 8.51001 29.4149 8.10001 28.6249 8.10001L28.6149 8.11001ZM118.145 8.47001H117.065C116.535 8.47001 116.015 8.58001 115.535 8.81001C115.055 9.04001 114.645 9.38001 114.325 9.80001V15.5C115.135 15.56 115.935 15.73 116.695 16V17.14H110.105V15.98C110.655 15.76 111.225 15.6 111.815 15.5V8.20001C111.185 8.08001 110.605 7.80001 110.105 7.40001V6.50001L113.735 5.61001H114.215L114.035 8.53001H114.175C115.015 6.52001 116.045 5.64001 117.575 5.64001C117.915 5.63001 118.245 5.69001 118.555 5.82001L118.145 8.48001V8.47001ZM20.2249 9.29001C19.6949 9.29001 19.1749 9.40001 18.6949 9.63001C18.2149 9.86001 17.8049 10.2 17.4849 10.62V16.32C18.2949 16.38 19.0949 16.55 19.8549 16.82V17.96H13.2649V16.8C13.8149 16.58 14.3849 16.42 14.9749 16.32V9.03001C14.3449 8.90001 13.7649 8.63001 13.2649 8.23001V7.34001L16.8949 6.45001H17.3749L17.1949 9.37001H17.3349C18.1749 7.36001 19.2049 6.48001 20.7349 6.48001C21.0749 6.47001 21.4049 6.53001 21.7149 6.66001L21.3049 9.30001H20.2349L20.2249 9.29001ZM102.255 17.42C101.545 17.42 100.845 17.28 100.205 16.99V20.27C100.885 20.35 101.555 20.51 102.195 20.75V21.91H95.8749V20.75C96.4349 20.52 97.0149 20.36 97.6049 20.27V8.18001C97.0349 8.07001 96.2549 7.72001 95.8949 7.38001V6.48001L99.5849 5.60001H100.045V7.06001C100.775 6.60001 102.305 5.56001 104.245 5.56001C106.545 5.56001 108.325 7.18001 108.325 10.6C108.325 14.93 105.615 17.41 102.255 17.41V17.42ZM102.485 7.64001C101.685 7.66001 100.905 7.87001 100.205 8.26001V14.78C100.995 15.26 101.905 15.5 102.825 15.49C104.785 15.49 105.835 14.33 105.835 11.8C105.835 9.11001 104.425 7.65001 102.485 7.65001V7.64001ZM9.21487 11.22L8.75487 8.83001C8.25487 8.56001 7.40487 8.35001 6.40487 8.35001C4.53487 8.35001 3.23487 9.61001 3.23487 12.02C3.23487 14.85 4.90487 16.21 7.38487 16.21C8.50487 16.19 9.61487 15.98 10.6649 15.59V17.21C9.91487 17.67 8.04487 18.19 6.30487 18.19C2.56487 18.19 0.744873 16.14 0.744873 12.95C0.744873 9.19001 3.41487 6.39001 7.22487 6.39001C8.66487 6.39001 10.0249 6.80001 10.8949 7.35001C10.8749 8.60001 10.7449 9.84001 10.5049 11.06L9.20487 11.22H9.21487ZM155.985 2.07001L157.955 0.100006L159.925 2.07001L157.955 4.04001L155.985 2.07001ZM158.055 5.56001C158.715 5.56001 159.015 5.99001 159.015 6.68001C159.015 6.91001 158.965 7.25001 158.945 7.48001L157.735 14.91C157.795 14.98 157.855 15.06 157.915 15.14H159.785V16.03C158.735 16.6 156.635 17.37 155.865 17.37C155.225 17.37 154.905 16.96 154.905 16.28C154.905 16.08 154.975 15.69 154.995 15.48L156.205 8.05001L156.025 7.82001H154.165V6.93001C155.205 6.34001 157.325 5.56001 158.055 5.56001ZM167.955 5.56001C169.395 5.56001 170.765 5.97001 171.625 6.52001C171.605 7.77001 171.475 9.01001 171.235 10.24L169.935 10.4L169.475 8.01001C168.975 7.74001 168.135 7.53001 167.125 7.53001C165.255 7.53001 163.955 8.79001 163.955 11.2C163.955 14.03 165.625 15.39 168.105 15.39C169.225 15.37 170.335 15.16 171.385 14.77V16.39C170.635 16.84 168.765 17.37 167.025 17.37C163.285 17.37 161.465 15.32 161.465 12.13C161.465 8.37001 164.135 5.57001 167.945 5.57001L167.955 5.56001Z" fill="#E9ECF3"/>
</svg>
